<svg width="201" height="210" viewBox="0 0 201 210" fill="none" xmlns="http://www.w3.org/2000/svg">
<line x1="200.36" y1="1.34655" x2="0.360426" y2="209.347" stroke="black"/>
<line x1="0.360417" y1="0.653446" x2="200.36" y2="208.653" stroke="black"/>
<path d="M110.051 48.0909C110.051 50.392 109.636 52.3807 108.805 54.0568C107.974 55.733 106.834 57.0256 105.385 57.9347C103.936 58.8438 102.281 59.2983 100.42 59.2983C98.5597 59.2983 96.9048 58.8438 95.456 57.9347C94.0071 57.0256 92.8672 55.733 92.0362 54.0568C91.2053 52.3807 90.7898 50.392 90.7898 48.0909C90.7898 45.7898 91.2053 43.8011 92.0362 42.125C92.8672 40.4489 94.0071 39.1562 95.456 38.2472C96.9048 37.3381 98.5597 36.8835 100.42 36.8835C102.281 36.8835 103.936 37.3381 105.385 38.2472C106.834 39.1562 107.974 40.4489 108.805 42.125C109.636 43.8011 110.051 45.7898 110.051 48.0909ZM107.494 48.0909C107.494 46.2017 107.178 44.6072 106.546 43.3075C105.921 42.0078 105.072 41.0241 104 40.3565C102.935 39.6889 101.741 39.3551 100.42 39.3551C99.0994 39.3551 97.9027 39.6889 96.8303 40.3565C95.7649 41.0241 94.9162 42.0078 94.2841 43.3075C93.6591 44.6072 93.3466 46.2017 93.3466 48.0909C93.3466 49.9801 93.6591 51.5746 94.2841 52.8743C94.9162 54.174 95.7649 55.1577 96.8303 55.8253C97.9027 56.4929 99.0994 56.8267 100.42 56.8267C101.741 56.8267 102.935 56.4929 104 55.8253C105.072 55.1577 105.921 54.174 106.546 52.8743C107.178 51.5746 107.494 49.9801 107.494 48.0909Z" fill="black"/>
<path d="M154.642 117V95.1818H157.284V114.656H167.426V117H154.642Z" fill="black"/>
<path d="M96.642 177V155.182H109.81V157.526H99.2841V164.898H109.128V167.241H99.2841V174.656H109.98V177H96.642Z" fill="black"/>
<path d="M33.642 116V94.1818H36.2841V105.006H36.5398L46.3409 94.1818H49.7926L40.6307 104.026L49.7926 116H46.5966L39.0114 105.858L36.2841 108.926V116H33.642Z" fill="black"/>
</svg>
